<?xml version="1.0" encoding="UTF-8"?><svg id="Wortbildmarke_farbig" xmlns="http://www.w3.org/2000/svg" width="227.745" height="279.851" viewBox="0 0 227.745 279.851"><path d="M36.194,212.104c-1.565-.137-3.134-.264-4.708-.38-.24-.39-.481-.779-.722-1.168-.716-3.126-1.433-6.253-2.149-9.379-.518-1.986-1.036-3.972-1.556-5.958.371-1.152.747-2.304,1.129-3.456.537-.18,1.073-.358,1.61-.536-.155-.706-.31-1.411-.465-2.117-1.16-2.643-3.087-4.765-5.821-6.329,1.259-1.656,2.114-3.312,2.541-4.976.427-1.663.32-3.399-.348-5.206-.672,0-1.345.001-2.018.004-2.108-1.893-3.368-4.624-3.71-8.224.053-.072.105-.143.158-.215-.716-3.126-1.433-6.253-2.149-9.379.063-.489.129-.978.195-1.467,1.921-1.208,4.084-2.099,6.48-2.663,2.389-.561,4.779-1.072,7.158-1.529,1.849.086,3.693.185,5.534.297.216.431.433.862.649,1.293.561,3.158,1.123,6.316,1.684,9.474.426,2.008.849,4.017,1.272,6.026-.469,1.139-.933,2.279-1.391,3.42-.57.163-1.14.327-1.71.492.212,1.136.426,2.272.638,3.409,1.189,2.129,3.004,3.937,5.409,5.451-1.663,1.995-2.554,4.158-2.698,6.477-.149,2.32.144,4.705.858,7.159.819-.153,1.64-.304,2.46-.451.292-.815.348-1.736.167-2.76,1.359-.888,2.878-1.606,4.561-2.146,1.679-.541,3.491-.9,5.418-1.072,1.783.317,3.558.647,5.328.99.12.188.239.376.357.564.292.077.583.155.875.233.149.184.299.368.447.552.42,3.18.839,6.36,1.258,9.54.128,1.906-.295,3.71-1.26,5.418-.147.02-.294.041-.441.061-.761,1.214-1.512,2.43-2.255,3.649-1.172.93-2.549,1.402-4.151,1.424-1.8.286-3.453-.226-5.004-1.543-.259-.805-.52-1.611-.779-2.416-.146.026-.294.051-.44.077-.284,1.487-.562,2.974-.833,4.461-.34.267-.68.534-1.021.802-3.526.645-7.045,1.344-10.555,2.097Z" fill="#3e311b" stroke="#d4a72c" stroke-miterlimit="10" stroke-width="3.945"/><path d="M83.371,205.093c-1.201-.342-2.407-.679-3.617-1.009-1.446-1.672-2.662-3.431-3.653-5.282-.989-1.85-1.774-3.847-2.359-5.997-.352-3.507-.705-7.015-1.057-10.522-.842-2.76-2.508-5.092-5.026-6.965,1.432-1.497,2.47-3.042,3.083-4.646.617-1.601.704-3.337.255-5.209-.666-.079-1.331-.155-1.996-.231-1.667-2.09-2.588-4.951-2.723-8.6.061-.065.121-.13.181-.195-.349-3.188-.698-6.377-1.047-9.565.086-.475.171-.949.259-1.424,3.21-1.626,6.925-2.423,11.081-2.356,1.97.42,3.933.854,5.889,1.301.081.169.161.337.24.506.318.124.635.248.951.372.359,1.83.712,3.661,1.064,5.491.246,3.922.492,7.844.738,11.766-.504.35-1.006.701-1.507,1.054.007.115.015.231.023.346-.354.081-.709.163-1.063.246.067.98.137,1.961.204,2.941.068.053.137.106.206.159.402,5.823.802,11.646,1.204,17.469.266.706.531,1.412.793,2.118.61.772,1.65,1.137,3.12,1.107.862-.485,1.727-.967,2.597-1.447.177-.733.356-1.465.537-2.197-.292-5.83-.583-11.659-.875-17.489.013-1.042.027-2.085.04-3.127-.362-.04-.723-.079-1.084-.118-.006-.115-.012-.231-.018-.346-.472-.236-.943-.471-1.416-.705-.069-.054-.138-.108-.207-.163-.22-3.924-.441-7.847-.662-11.771.231-1.923.432-3.844.602-5.764.293-.276.587-.552.882-.828,1.675-.838,3.49-1.443,5.44-1.807,1.948-.363,4.001-.487,6.138-.364,1.767.392,3.526.794,5.281,1.208.177.461.354.921.529,1.382.031,3.207.062,6.414.094,9.622.086,2.051.172,4.102.257,6.153-.648,1.017-1.292,2.036-1.931,3.056-.586.095-1.172.192-1.758.29.022,1.155.043,2.311.065,3.466.758,2.299,2.234,4.381,4.416,6.272-2.278,2.098-3.651,4.496-4.164,7.164.067,3.524.131,7.049.198,10.573-.323,2.203-.901,4.339-1.716,6.41-.816,2.072-1.934,4.024-3.34,5.863-1.793.87-3.852,1.271-6.201,1.217-2.105.137-4.209.293-6.311.467-.877.032-1.756.067-2.636.105Z" fill="#3e311b" stroke="#d4a72c" stroke-miterlimit="10" stroke-width="3.945"/><path d="M122.763,204.444c-1.476-.514-2.958-1.019-4.445-1.515-.108-.436-.216-.871-.326-1.307-.083-3.008-.171-6.015-.263-9.023.073-.605.145-1.211.218-1.816.911-2.929,2.414-5.555,4.539-7.859,2.123-2.302,3.278-5.055,3.411-8.29-.252-.82-.508-1.64-.764-2.459,3.042-.925,5.835-2.461,8.434-4.623.608-.427,1.22-.853,1.833-1.278,1.326-1.913,2.669-3.82,4.032-5.72-.724-.053-1.447-.104-2.171-.152-.513.778-.806,1.685-.872,2.723-1.611.532-3.314.865-5.12,1-1.808.137-3.743.104-5.826-.091-1.77-.646-3.55-1.279-5.337-1.901-.062-.175-.123-.35-.185-.525-.291-.151-.584-.303-.876-.454-.161-.177-.322-.353-.482-.53.066-3.236.132-6.471.198-9.707.24-1.903,1.054-3.622,2.459-5.145,1.221-1.038,2.453-2.07,3.692-3.097,1.54-.756,3.242-.948,5.086-.573,2.131.1,3.923.953,5.335,2.543.121.847.241,1.693.36,2.54.136.008.272.017.407.025.701-1.375,1.407-2.748,2.12-4.119.458-.143.917-.286,1.375-.428,4.193.294,8.385.652,12.57,1.073,1.742.611,3.475,1.233,5.204,1.866.084.475.168.95.251,1.424-.365,3.186-.73,6.373-1.096,9.559-.017.725-.032,1.45-.049,2.176-.14.042-.278.085-.417.127-1.274,1.774-2.66,3.483-4.153,5.126-.13-.014-.261-.027-.392-.041-.021.201-.042.403-.063.604-3.446,3.362-5.307,6.536-5.704,9.458.209.861.418,1.721.623,2.582-3.071.756-5.883,2.21-8.426,4.342-.733.584-1.462,1.17-2.188,1.758-1.029,1.379-1.86,2.803-2.507,4.269.798.049,1.596.101,2.395.155.479-.72.758-1.599.831-2.637,1.526-.531,3.176-.857,4.932-.972,1.758-.115,3.598-.024,5.507.278,1.679.744,3.35,1.499,5.012,2.266.187.282.373.565.559.848.217.286.433.573.649.859-.367,3.187-.734,6.373-1.101,9.56-.334,1.88-1.191,3.527-2.541,4.948-1.181.975-2.353,1.956-3.513,2.943-1.361.617-2.781.743-4.279.379-1.864-.166-3.381-1.068-4.555-2.721-.055-.844-.11-1.689-.167-2.533-.147-.011-.295-.022-.444-.033-.606,1.375-1.207,2.752-1.801,4.13-.424.174-.847.349-1.269.524-3.564-.232-7.132-.41-10.702-.534Z" fill="#3e311b" stroke="#d4a72c" stroke-miterlimit="10" stroke-width="3.945"/><path d="M163.182,208.178c-1.411-.68-2.829-1.352-4.254-2.015-.058-.445-.115-.891-.174-1.336.26-2.997.518-5.996.77-8.994.142-.593.283-1.186.425-1.779,1.243-2.806,3.039-5.242,5.418-7.287,2.379-2.043,3.842-4.645,4.345-7.844-.158-.844-.319-1.687-.479-2.531,3.132-.57,6.1-1.774,8.932-3.623.656-.354,1.314-.707,1.973-1.058,1.541-1.748,3.098-3.488,4.673-5.218-.716-.136-1.431-.27-2.147-.401-.6.713-.997,1.581-1.181,2.604-1.666.343-3.406.477-5.217.404-1.815-.072-3.743-.327-5.793-.76-1.691-.845-3.39-1.678-5.098-2.501-.042-.181-.083-.362-.124-.543-.273-.184-.547-.368-.821-.551-.14-.194-.279-.388-.419-.582.436-3.207.872-6.414,1.307-9.621.461-1.862,1.46-3.477,3.038-4.83,1.335-.891,2.679-1.775,4.031-2.653,1.619-.573,3.336-.57,5.132.015,2.118.345,3.796,1.398,5.026,3.14.023.855.047,1.71.067,2.565.135.024.27.048.404.072.855-1.285,1.717-2.568,2.583-3.848.473-.09.946-.178,1.42-.266,4.147.775,8.286,1.614,12.415,2.517,1.667.808,3.328,1.627,4.979,2.456.03.482.06.963.088,1.444-.729,3.124-1.457,6.247-2.186,9.371-.099.719-.198,1.437-.297,2.156-.143.026-.287.052-.431.078-1.475,1.615-3.055,3.152-4.73,4.612-.129-.029-.258-.057-.386-.086-.044.198-.087.395-.132.593-3.822,2.941-6.042,5.881-6.771,8.737.111.879.219,1.758.327,2.638-3.149.397-6.121,1.516-8.9,3.342-.797.496-1.591.994-2.382,1.495-1.184,1.252-2.175,2.571-2.988,3.952.791.141,1.581.284,2.37.429.557-.66.941-1.502,1.129-2.524,1.582-.351,3.262-.485,5.03-.397,1.765.088,3.587.391,5.461.912,1.591.933,3.171,1.877,4.742,2.831.155.302.308.605.461.907.183.31.367.619.549.929-.73,3.123-1.46,6.247-2.191,9.37-.554,1.828-1.593,3.366-3.1,4.622-1.29.832-2.571,1.671-3.843,2.517-1.429.455-2.859.417-4.312-.118-1.842-.38-3.248-1.451-4.231-3.229.042-.845.083-1.691.123-2.536-.146-.028-.293-.056-.439-.084-.762,1.296-1.518,2.595-2.268,3.896-.441.124-.883.249-1.323.375-3.527-.641-7.062-1.228-10.603-1.761Z" fill="#3e311b" stroke="#d4a72c" stroke-miterlimit="10" stroke-width="3.945"/><path d="M30.186,252.29c-.737-.112-1.474-.223-2.212-.333-.221-.32-.444-.64-.667-.96-.228-1.78-.456-3.559-.684-5.337-.178-1.134-.355-2.267-.534-3.401.257-.594.514-1.188.773-1.782.276-.061.552-.121.828-.182-.05-.401-.1-.801-.151-1.202-.492-1.539-1.395-2.856-2.709-3.948.704-.789,1.209-1.629,1.52-2.522.304-.892.318-1.857.018-2.896-.403.012-.807.023-1.211.036-.796-1.24-1.228-2.89-1.286-4.956-.194-1.807-.388-3.612-.582-5.418.036-.263.071-.526.107-.789.803-.389,1.636-.729,2.488-1.025,1.803-.212,3.607-.418,5.411-.618.863-.063,1.727-.125,2.59-.185.94-.134,1.88-.266,2.821-.397,1.536.33,2.966.939,4.284,1.825.952,1.283,1.578,2.716,1.876,4.293.154,1.477.31,2.954.465,4.431.062.11.124.219.186.329.13,1.234.006,2.377-.37,3.424-.376,1.049-.843,2.071-1.403,3.07.885.808,1.594,1.701,2.113,2.674.521.974.843,2.081.974,3.316-.022.264-.043.528-.065.793.133,1.253.266,2.507.399,3.761.071,1.899-.406,3.607-1.424,5.125-.78.648-1.646,1.187-2.578,1.618-.932.431-1.996.627-3.18.592-2.6.208-5.199.429-7.798.664ZM37.035,230.69c.341-.261.458-.566.351-.915-.186-.309-.372-.618-.559-.926-1.006-.262-2.053-.306-3.146-.132-.362.069-.725.138-1.087.208.092.788.185,1.576.278,2.365,1.246-.124,2.493-.245,3.738-.364.142-.079.284-.157.426-.236ZM37.666,239.352c.176-.212.351-.423.527-.635.026-.362.051-.723.077-1.085-1.391-.529-2.951-.598-4.675-.208.094.79.187,1.579.28,2.369.942-.055,1.884-.109,2.826-.16.322-.094.644-.188.966-.281Z" fill="#7b3638"/><path d="M53.152,250.562c-.855-.212-1.711-.423-2.567-.632-.09-.241-.179-.482-.27-.723-.184-1.816-.367-3.631-.55-5.446-.15-1.158-.3-2.315-.45-3.473.27-.612.541-1.223.812-1.835.277-.053.554-.106.83-.158-.038-.392-.077-.785-.116-1.177-.456-1.581-1.323-2.949-2.607-4.101.723-.78,1.25-1.626,1.577-2.54.327-.915.359-1.904.085-2.969-.339-.039-.678-.078-1.018-.117-1.009-1.397-1.466-3.051-1.354-4.967.031-.036.061-.071.091-.107-.18-1.809-.359-3.617-.54-5.425.044-.25.086-.501.13-.751.93-.544,1.965-.897,3.086-1.062,1.124-.162,2.278-.26,3.466-.292.885.192,1.77.385,2.652.581.106.24.212.48.318.719.161,1.823.325,3.646.487,5.47.138,1.165.276,2.329.413,3.494-.28.615-.562,1.23-.841,1.845-.298.054-.594.108-.892.162.06.657.12,1.313.18,1.97.487,1.29,1.342,2.438,2.566,3.451-.693.806-1.188,1.657-1.468,2.55-.287.895-.377,1.852-.284,2.871.335.045.67.09,1.006.136,1.021,1.428,1.471,3.109,1.348,5.035-.03.035-.06.069-.09.104.165,1.829.33,3.658.496,5.488-.059.251-.118.502-.177.754-.904.511-1.891.827-2.953.952-1.068.126-2.189.189-3.367.194Z" fill="#7b3638"/><path d="M71.602,249.69c-.849-.221-1.699-.439-2.55-.656-.087-.263-.172-.526-.259-.789-.147-1.843-.295-3.686-.443-5.528-.143-1.176-.288-2.352-.43-3.527.282-.596.565-1.192.849-1.788.293-.064.586-.127.879-.19-.031-.398-.062-.797-.093-1.195-.426-1.613-1.261-3.023-2.526-4.223,1.152-1.025,1.771-2.24,1.865-3.644.087-1.404.032-2.834-.182-4.289-.434.024-.869.048-1.305.073-.002.8-.246,1.545-.728,2.237-.947.287-1.979.413-3.085.381-.158-.09-.317-.18-.475-.27-.684-1.384-1.093-3.018-1.217-4.901-.061-.328-.122-.655-.183-.983-.046-1.539-.091-3.079-.134-4.618.045-.269.09-.538.135-.807.786-.354,1.626-.677,2.518-.971,2.025-.138,4.05-.267,6.076-.388.342.03.684.06,1.025.09.03-.052.06-.104.09-.156,2.027-.118,4.052-.227,6.079-.328.879.225,1.758.451,2.636.68.102.264.203.529.305.793.119,1.859.238,3.718.358,5.577.11,1.188.221,2.376.33,3.564-.265.564-.53,1.128-.795,1.692-.952.272-1.982.378-3.09.324-.157-.094-.314-.188-.471-.282-.482-.65-.775-1.339-.897-2.07-.451.02-.902.041-1.354.063.06.85.121,1.7.181,2.55.012,1.104.267,2.087.761,2.953.491.866,1.149,1.702,1.973,2.508-.715.763-1.218,1.596-1.521,2.493-.301.899-.414,1.866-.339,2.9.335.071.671.143,1.006.215.996,1.44,1.432,3.286,1.327,5.534.071,1.74.143,3.481.216,5.222-.063.27-.125.539-.188.809-.91.459-1.903.745-2.974.861-1.066.115-2.193.143-3.372.083Z" fill="#7b3638"/><path d="M89.874,249.349c-.862-.246-1.724-.49-2.586-.733-.082-.269-.163-.537-.245-.806-.113-1.869-.224-3.737-.337-5.606-.105-1.195-.209-2.389-.314-3.584.293-.612.587-1.225.881-1.837.294-.04.591-.079.885-.119-.024-.404-.047-.808-.07-1.213-.395-1.645-1.223-3.094-2.495-4.342.784-.761,1.35-1.601,1.698-2.521.347-.92.422-1.933.224-3.042-.337-.058-.675-.116-1.013-.174-.589-1.466-.993-3.171-1.208-5.118.03-.052.06-.103.091-.155-.111-1.866-.222-3.732-.332-5.598.053-.255.105-.51.159-.764.619-.395,1.481-.696,2.587-.904,2.062-.073,4.124-.136,6.185-.19.225.113.451.225.677.338.344.822.689,1.645,1.033,2.468.067-.001.135-.003.203-.004-.183-.979.118-1.749.902-2.311,1.027-.464,2.15-.673,3.371-.626.469.264.938.529,1.405.795.354.37.708.74,1.06,1.11.141.152.283.304.424.455.71.879,1.141,1.899,1.287,3.058.076,1.893.153,3.786.229,5.68-.144.188-.286.376-.429.564-.084,0-.167,0-.251,0-.029.119-.057.239-.085.358-.887.379-1.786.665-2.695.858-.913.194-1.884.263-2.922.206-.864-.262-1.728-.522-2.593-.78-.143-.523-.285-1.046-.429-1.569-.486-.026-.973-.051-1.46-.075.047,1.574.094,3.148.142,4.722,1.116.016,2.234.034,3.351.056.465-.039.929-.078,1.395-.117.969-.009,1.868.138,2.718.44.003.068.005.137.009.205.066,0,.133,0,.199,0,.037.085.074.169.111.254.067,1.549.135,3.098.203,4.647-.205.256-.409.511-.612.767-.991.052-1.981.107-2.972.163-1.334-.23-2.698-.304-4.083-.219.037.711.073,1.422.11,2.132.079.88.157,1.76.236,2.641.444-.004.889-.007,1.333-.01.172-.476.244-1.019.216-1.629.806-.379,1.66-.648,2.561-.803.902-.157,1.883-.183,2.944-.081.923.341,1.847.684,2.768,1.03.038.103.074.205.111.308.152.086.303.173.456.259.087.103.173.206.261.309.076,1.894.153,3.788.23,5.681-.053,1.159-.386,2.178-1.003,3.057-.066,0-.131-.002-.197-.002-.48.642-.958,1.284-1.435,1.926-.699.468-1.486.614-2.375.438-1.011-.008-1.899-.47-2.659-1.389-.104-.475-.21-.951-.314-1.426-.066,0-.131,0-.197,0-.255.814-.506,1.627-.759,2.441-.206.119-.411.237-.617.356-1.989-.001-3.976.006-5.964.023Z" fill="#7b3638"/><path d="M117.357,249.688c-.839-.303-1.681-.604-2.521-.902-.073-.26-.146-.519-.22-.779-.061-1.923-.119-3.846-.179-5.77-.07-1.22-.141-2.439-.213-3.659.31-.594.622-1.188.935-1.782.28-.028.56-.057.841-.085-.009-.309-.018-.618-.027-.928-.164-1.069-.738-1.99-1.722-2.764-1.05-.704-2.18-1.338-3.396-1.9.524-.217,1.048-.433,1.573-.649.111-.153.223-.306.335-.459-.815-1.553-1.634-3.104-2.456-4.651-.405-.105-.809-.21-1.214-.315-.454-1.472-.8-3.218-1.044-5.236.033-.034.065-.068.098-.102-.07-1.898-.139-3.797-.208-5.695.058-.274.115-.549.172-.823,1.625-.761,3.465-1.022,5.502-.777.957.346,1.916.695,2.871,1.046.037.104.074.207.111.311.155.087.309.175.464.263.131,1.103.262,2.205.394,3.308.064,2.342.128,4.683.192,7.024-.109.256-.22.512-.329.768-.246.151-.492.302-.739.452.472.73.943,1.461,1.413,2.192.254.126.507.252.76.378.882-.671,1.528-1.5,1.938-2.491-.003-.121-.006-.241-.009-.362-.219-.074-.438-.147-.658-.221-.939-1.535-1.292-3.297-1.039-5.292.033-.034.065-.068.098-.102-.049-1.913-.099-3.826-.148-5.74.077-.275.155-.55.232-.824,1.639-.74,3.478-.99,5.513-.743.938.364,1.875.731,2.812,1.101.053.123.106.245.159.368.137.09.273.181.409.271.138,1.113.275,2.227.411,3.34.039,2.342.079,4.684.117,7.026-.247.199-.494.399-.742.598.002.07.002.139.004.209-.199.063-.399.125-.599.188-.645,1.364-1.286,2.728-1.924,4.091-.066-.002-.133-.004-.199-.006-.061.309-.12.619-.181.928.588.296,1.175.592,1.762.89.035.105.07.21.105.315-1.521.36-2.901,1.163-4.13,2.402-.581.776-.823,1.701-.73,2.772.331.08.664.16.996.24.929,1.552,1.261,3.326,1.006,5.318-.032.033-.065.066-.097.099.041,1.935.083,3.871.125,5.806-.076.256-.152.512-.229.767-.903.409-1.902.636-2.992.68-1.092.044-2.226.011-3.4-.096Z" fill="#7b3638"/><path d="M135.715,250.561c-.851-.314-1.703-.625-2.556-.935-.069-.282-.138-.564-.207-.845-.024-1.929-.048-3.858-.072-5.787-.048-1.236-.095-2.472-.144-3.708.322-.609.644-1.219.968-1.828.297-.02.595-.04.892-.059-.004-.417-.008-.835-.013-1.252-.316-1.72-1.081-3.27-2.294-4.646.82-.727,1.425-1.552,1.816-2.474.389-.922.511-1.96.366-3.116-.335-.084-.67-.168-1.005-.252-.523-1.552-.845-3.337-.972-5.359.032-.051.065-.102.098-.153-.025-1.931-.049-3.862-.075-5.793.064-.259.129-.518.193-.777.636-.362,1.515-.611,2.63-.745,2.066.075,4.133.16,6.199.255.221.133.442.265.663.398.308.872.615,1.745.921,2.619.068.003.135.007.203.01-.136-1.023.194-1.794,1.009-2.314,1.05-.403,2.183-.536,3.405-.397.457.307.915.614,1.37.922.338.407.675.814,1.012,1.222.135.167.269.334.405.5.674.958,1.057,2.04,1.151,3.244-.01,1.954-.02,3.909-.031,5.862-.151.183-.304.366-.455.549-.083-.006-.167-.012-.252-.018-.034.121-.067.242-.101.362-.904.324-1.822.554-2.741.686-.922.133-1.901.133-2.937-.001-.853-.333-1.707-.663-2.562-.992-.12-.549-.237-1.098-.357-1.646-.486-.062-.973-.123-1.459-.183-.025,1.624-.051,3.248-.076,4.871,1.118.097,2.236.197,3.355.3.468-.007.934-.013,1.402-.019.964.061,1.869.278,2.703.651,0,.071,0,.141,0,.211.067.005.133.009.2.014.033.09.066.18.1.27-.004,1.598-.009,3.196-.012,4.794-.217.248-.433.496-.649.744-.995-.018-1.991-.034-2.986-.048-1.327-.333-2.688-.508-4.081-.52.003.734.007,1.467.011,2.201.038.911.075,1.821.112,2.732.446.028.892.057,1.337.086.196-.476.295-1.031.292-1.659.825-.332,1.696-.546,2.604-.641.905-.095,1.896-.052,2.954.13.91.418,1.82.838,2.727,1.26.032.108.065.216.097.324.149.1.297.2.446.3.082.112.164.224.246.336-.011,1.951-.023,3.903-.035,5.854-.106,1.187-.494,2.208-1.15,3.067-.066-.006-.131-.011-.197-.017-.511.624-1.021,1.249-1.53,1.874-.723.431-1.52.524-2.403.279-1.012-.08-1.879-.619-2.6-1.617-.082-.496-.165-.991-.247-1.487-.066-.005-.132-.01-.198-.014-.292.818-.585,1.635-.876,2.453-.212.107-.425.214-.636.322-1.992-.143-3.985-.276-5.977-.4Z" fill="#7b3638"/><path d="M157.919,252.235c-.848-.313-1.695-.623-2.543-.932-.079-.272-.157-.544-.237-.815.019-1.954.038-3.909.057-5.864-.021-1.254-.042-2.507-.064-3.761.336-.606.673-1.212,1.011-1.818.183-.019.366-.038.548-.057.023-.634.046-1.267.07-1.901-.083-1.418-.488-2.708-1.209-3.861.539-.609,1.079-1.218,1.62-1.827.614-1.292.999-2.603,1.148-3.935-.217-.106-.434-.212-.65-.318-.654-1.326-.941-3.151-.849-5.475.018-.123.035-.245.053-.368.036-1.871.071-3.742.106-5.614.088-.277.175-.553.263-.83.778-.334,1.668-.516,2.651-.548,2.019.136,4.037.281,6.056.436,2.019.191,4.037.392,6.055.603.981.202,1.856.539,2.628,1.01.077.294.155.588.232.883-.032,1.894-.066,3.787-.098,5.681.013.127.027.254.04.381,0,2.361-.347,4.148-1.052,5.36-.219.065-.441.131-.66.197.099,1.368.435,2.763.998,4.183.517.719,1.032,1.439,1.546,2.16-.769,1.02-1.218,2.239-1.353,3.651,0,.643-.002,1.287-.003,1.93.181.057.363.113.544.17.314.681.626,1.362.938,2.043-.07,1.261-.14,2.521-.209,3.782-.058,1.977-.116,3.953-.175,5.929-.09.257-.181.513-.27.77-.858.123-1.715.248-2.572.374-.784-.026-1.688-.171-2.698-.433-1.011-.261-1.938-.635-2.78-1.121-.029-.128-.059-.256-.09-.384-.113-.048-.227-.096-.342-.144-.138-1.188-.265-2.391-.368-3.61.049-2.392.097-4.786.146-7.179.27-.256.541-.512.812-.768.216-.013.433-.026.648-.039-.064-.861-.129-1.721-.195-2.582-1.428-.149-2.855-.292-4.284-.431-.096.842-.194,1.683-.292,2.525.215.057.43.114.644.17.26.31.519.62.779.93-.044,2.391-.089,4.782-.133,7.172-.156,1.19-.322,2.359-.509,3.509-.116.023-.23.046-.345.069-.036.121-.07.241-.106.362-.862.298-1.792.464-2.811.501-1.016.037-1.916-.018-2.699-.165ZM167.361,230.943c-.216-.911-.433-1.822-.649-2.732-.671-.065-1.34-.128-2.011-.19-.25.865-.5,1.73-.749,2.594.736.051,1.471.103,2.207.157.4.056.801.114,1.202.171Z" fill="#7b3638"/><path d="M181.819,255.069c-.728-.334-1.457-.667-2.186-.998-.057-.276-.114-.553-.17-.829.066-1.98.133-3.96.199-5.941.009-1.271.018-2.543.027-3.814.352-.601.704-1.202,1.057-1.803.284,0,.566.002.85.003.015-.429.029-.858.045-1.288-.238-1.789-.918-3.437-2.041-4.94.824-.688,1.461-1.49,1.914-2.404.449-.914.613-1.973.485-3.175-.333-.112-.666-.225-1-.336-.621-1.547-.855-3.424-.679-5.63.035-.032.069-.064.103-.096.063-1.987.126-3.974.188-5.962.077-.261.154-.522.23-.784.856-.228,1.73-.417,2.625-.566,1.818.21,3.635.428,5.452.654.864.144,1.73.29,2.594.438.986.091,1.973.185,2.961.281.968.457,1.848,1.142,2.625,2.049.025.167.052.335.078.502.084.012.17.024.255.036.809,1.715,1.437,3.499,1.892,5.348-.084,1.734-.169,3.468-.255,5.201-.003,1.419-.005,2.837-.007,4.255-.252.634-.502,1.268-.751,1.902-.158.139-.316.278-.474.417-.54.717-1.093,1.449-1.668,2.196.364.436.73.873,1.094,1.311.217.361.434.721.65,1.082.075.193.149.386.223.58.229.436.459.872.688,1.308.092.16.184.321.276.481.197.068.394.136.592.204.123.202.247.403.37.605-.126,2.434-.253,4.867-.381,7.299-.229,1.197-.44,2.378-.634,3.544-.116.017-.233.034-.35.05-.04.12-.079.241-.119.361-.775.269-1.618.429-2.528.478-.91.049-1.871-.042-2.884-.276-.822-.42-1.645-.838-2.467-1.253-.07-.281-.141-.563-.212-.844.087-1.991.176-3.982.263-5.974.023-1.279.046-2.558.068-3.837.296-.318.593-.635.892-.953.101-.401.202-.802.303-1.203-.293-.532-.588-1.063-.883-1.594-.521-.31-1.043-.62-1.566-.929-.515-.073-1.031-.145-1.546-.217-.032.807-.065,1.614-.098,2.421.244.143.489.285.732.428-.004.09-.007.18-.011.27.226.194.452.389.677.583.031.041.062.081.094.122-.102,2.422-.204,4.843-.307,7.263-.179,1.199-.383,2.378-.595,3.535-.117.018-.233.037-.35.055-.038.121-.076.241-.113.362-.875.337-1.802.516-2.79.534-.988.019-2.133-.155-3.437-.516ZM192.215,233.498c.232-.293.462-.586.695-.879-.167-.422-.334-.844-.501-1.266-.886-.522-1.892-.769-3.007-.739-.371-.014-.741-.027-1.112-.04-.035.88-.07,1.759-.104,2.639,1.221.164,2.443.333,3.665.505.121-.073.241-.146.363-.22Z" fill="#7b3638"/><g id="B_150px"><path d="M71.467,86.44c-4.601,1.467-10.988,51.419,35.499,47.747,64.509,9.493,53.034-41.333,52.038-47.231-83.494,8.425-74.638-4.145-87.537-.516Z" fill="#d8c6a6"/><path d="M164.218,96.891c-1.017-.426-2.305-1.329-3.3-.381-1.061,1.1.074,2.457,1.349,2.556.892.338,1.718.848,2.441,1.469,3.603,2.806,1.945,7.176-.853,9.879-1.238,1.075-2.798,1.658-4.216,2.45-.663.367-.875,1.261-.499,1.904.391.67,1.25.863,1.903.499,4.405-1.832,7.859-5.189,8.553-10.074.342-3.605-2.296-6.766-5.378-8.301Z"/><path d="M69.006,111.158c-5.387-.831-9.135-4.428-5.737-9.763,1.045-1.516,2.776-2.333,4.574-2.488,1.622-.386,1.129-2.986-.553-2.721-4.306.276-7.509,4.022-8.027,8.165-.966,5.38,4.656,8.99,9.366,9.564,1.775.281,2.168-2.542.377-2.756Z"/><path d="M161.291,71.945c-.52-1.305-1.625-2.177-2.419-3.291-.894-1.275-1.383-2.759-1.678-4.276-1.32-5.182-1.201-11.54-5.508-15.328-2.172-1.433-4.687-2.255-6.929-3.571-1.209-1.01-2.128-2.039-3.264-2.685-2.641-2.877-4.403-6.574-6.754-9.678-3.071-4.711-5.502-4.889-10.136-2.049-2.897,1.592-5.235,3.953-7.898,5.87-2.282,1.875-5.18,1.336-7.386-.372-2.341-1.612-4.485-3.497-6.853-5.072-2.072-1.358-4.745-.672-6.317,1.121-2.153,2.038-4.24,4.17-6.031,6.537-1.426,2.066-2.986,4.047-4.876,5.712-1.874,1.635-4.31,2.536-5.986,4.417-4.358,5.071-6.628,11.541-8.196,17.951-.329,1.24-.461,2.574-1.085,3.711-.633.768-1.105,1.627-1.413,2.574-.29,1.241-1.762,3.366.02,4.045,1.815.334,1.634-2.075,2.253-3.201.457-1.375,1.648-2.557,2.011-4.024,5.557.406,11.147.438,16.738,1.244,5.375.502,10.721,1.545,16.12,1.596,6.103.059,12.201-.416,18.308-.203,5.14-.2,10.227-1.268,15.369-1.42,4.07-.261,8.046-1.517,12.108-1.884,1.555-.106,3.115.028,4.664.205.26.019.534.121.804.176.53.785,1.199,1.674,2.071,2.779.572,1.131.834,2.392.953,3.646-.023.69.18,1.485.939,1.681,2.828.492,1.005-4.798.375-6.211Z" fill="#2f2814"/><path d="M188.98,62.08s0-.003,0-.005c-.008-.023-.016-.046-.024-.069,0,.002.001.005.002.007.008.022.015.044.023.066Z" fill="#2f2814"/><path d="M188.936,61.949c.006.016.011.033.017.049,0,.003.002.005.003.008-.007-.019-.013-.038-.02-.057Z" fill="#2f2814"/><path d="M100.944,92.433c.543-.635-.081-1.683-.892-1.54-.112.055-.22.119-.326.19-.127-.114-.295-.195-.509-.222-1.221-.088-3.735-.528-5.309-.23-.215-.643-2.362-.7-2.893.01-2.087,2.293-2.621,4.601-4.595,6.919-.009.017-.015.034-.023.052-.161,0-.323-.005-.484-.015-.016-.001-.031-.002-.047-.003-.879-.068-1.742-.261-2.61-.406-.543-.091-1.095-.167-1.647-.122-.651.053-1.24.308-1.776.671-.523.354-.977.81-1.385,1.289-.397.466-.751.974-1.058,1.503-.52.897-.925,1.851-1.297,2.816-.176.455-.349.911-.522,1.368-.235.62-.477,1.243-.656,1.884-.164.592-.285,1.204-.216,1.821.065.593.317,1.155.656,1.64.377.539.909.958,1.453,1.318.184.122.373.236.564.347-1.755,2.631-3.465,5.288-5.06,8.02-.625,1.022-1.272,2.031-1.942,3.025-.499.63-1.251,1.677-.395,2.246.051.084.116.16.198.223.031.023.061.047.092.07.006.005.011.009.017.013.032.025.064.049.096.074.463.357.926.714,1.389,1.072.04.031.081.063.121.094.813.628,1.627,1.257,2.441,1.885.187.144.395.235.631.235.02,0,.04,0,.06-.002.256-.016.498-.137.666-.33.144-.167.223-.387.231-.608.977-.178,1.395-1.888,2.063-2.57,2.273-3.406,5.008-6.524,7.404-9.852.15-.198.283-.409.415-.62,1.019.245,2.044.471,3.073.669.609.117,1.219.225,1.833.315.398.059.801.11,1.202.11.287,0,.573-.026.856-.095,1.067-.258,2.019-.912,2.799-1.665.983-.948,1.721-2.106,2.31-3.33.299-.623.561-1.262.796-1.912.033-.092.066-.184.099-.276.03-.085.064-.17.09-.257.016-.046.032-.092.048-.139.054-.157.107-.315.159-.473.105-.32.207-.641.308-.962.169-.538.334-1.077.499-1.616.2-.657.387-1.319.608-1.969.168-.497-.189-1.05-.672-1.183-.025-.007-.05-.012-.076-.017-.09-.1-.202-.183-.334-.235-.714-.286-1.434-.552-2.151-.832-.671-.262-1.346-.515-2.025-.754.123-.167.253-.339.402-.518,1.854-2.316,3.375-4.882,5.322-7.125Z"/><path d="M145.964,105.363c-.3-1.017-.705-1.909-1.018-2.249-.344-.483-.788-.906-1.304-1.198-.821-1.691-4.719-1.438-6.218-1.066-3.977.9-6.177,5.341-5.986,9.171.21,4.448,4.556,6.221,8.456,6.351,6.305-.238,8.216-6.269,6.071-11.01Z"/><path d="M86.924,93.404c-.112-.065-.251-.105-.418-.106-2.431-.853-4.957-1.421-7.491-1.876-2.046-.345-3.917.814-5.163,2.355-.589.877-1.76,1.716-1.712,2.84,1.054,2.238,2.983-2.6,6.741-2.748,1.921,1.051,4.144,1.553,6.22,2.236,1.426.429,2.093-.391,2.075-1.037.928-.148,1.094-1.354-.253-1.662Z"/><path d="M144.783,93.827c-5.769-2.28-14.454,4.568-20.486,5.956-.462-.206-1.069.124-1.114.638.079,1.175,1.324,1.983,2.217,2.601,3.133,1.868,9.027-3.879,12.286-5.091,2.178-.963,4.639-2.251,7.066-1.572.802.218,1.382,1.048,2.239,1.031,2.132-.889-1.09-3.21-2.208-3.563Z"/><path d="M123.992,125.362c-1.362-1.693-5.275-2.544-7.394-3.109-3.66-.746-10.022-.004-13.003,2.277.034-.053.073-.102.117-.147-.589.558.008,1.589.784,1.356.69-.403,1.412-.77,2.189-1.011,5.285-1.879,11.301-1.39,16.116,1.548.589.383,1.4-.249,1.19-.915Z"/><path d="M119.557,127.6c-.235-.554-.909-1.025-1.442-1.01-.499-.256-1.259-.475-2.37-.601-.487-.052-1.28-.247-1.958-.239-2.041-.424-5.285,1.486-5.963,3.114-.933,3.824,1.517,7.548,2.735,11.06.755,1.456,1.579,4.482,2.863,5.352,1.262.343,2.167-1.448,2.848-3.679.48-1.22.934-2.45,1.395-3.678.805-2.243,1.783-4.449,2.256-6.794.24-1.17.257-2.465-.364-3.525Z"/><path d="M121.246,135.173c-1.022-.095-.928-1.671.098-1.632.797.125,2.186-.512,2.412.628.057,1.296-1.668.912-2.511,1.004Z"/><path d="M117.048,114.375c-.773.638-1.072,1.854-2.207,2.103-2.845.907-2.156-1.744-3.631-2.029-1.623.243-.321,2.171.317,2.848,2.043,2.067,5.586.585,6.583-1.86.307-.635-.432-1.358-1.061-1.061ZM110.979,116.033c.045.012.103.025.164.031-.056-.003-.111-.015-.164-.031Z"/><path d="M111.57,116.484c-.473.373-.407,1.017-.655,1.42-.684-.328-1.728-.316-2.346-.54-.582-.063-1.537-.346-2.043-.016-.54-.029-1.509-.091-2.515-.066-.611-.016-1.218.031-1.819.174-.465.092-.876.226-1.179.42-.076.036-.151.074-.227.114-.821.518-2.924,1.156-2.218,2.423.524.665,1.222.116,1.707-.285.425-.284.874-.531,1.342-.734.704-.152,1.565-.602,2.21-.502.031-.008.065-.014.099-.02,3.45.104,8.159,3.015,8.865-1.664.029-.621-.693-1.048-1.22-.724Z"/><path d="M129.025,119.074c-.086-.096-.177-.186-.27-.274-.271-.42-.859-.76-1.277-.934-.064-.025-.128-.046-.192-.068-.67-.32-1.4-.523-2.136-.614-2.179-.235-4.356.26-6.481.684-.632.094-1.34.346-1.966.11-.001-.197-.04-.389-.12-.549-.022-.19-.055-.376-.179-.534-.297-.413-.988-.419-1.283,0-.176.317-.199.706-.124,1.087-.122.951.737,2.14,1.794,2.093,3.321.142,7.342-2.133,10.436-.444.227.168.445.363.652.589.729.755,1.895-.414,1.145-1.146Z"/><path d="M66.245,98.938c2.077-2.206-12.508,7.363,1.468,12.03-.072.679-.296-10.389-1.468-12.03Z" fill="#d8c6a6"/><path d="M162.099,98.613c-.177,5.515-1.205,13.242-1.205,13.242,1.131.888,13.467-6.643,1.205-13.242Z" fill="#d8c6a6"/><path d="M160.765,70.456c-4.826-2.312-10.035-1.159-14.999-.762-4.595.319-9.076,2.133-13.67,2.498-7.186.724-14.418-.533-21.609.232-7.855.769-15.689-.54-23.519-1.303-5.308-.415-10.591-2.276-15.919-1.612-2.004.08-3.263,2.508-3.743,5.291-.237.938-.495,2.085.044,2.906,2.667,2.391-.84-.463,1.741-.82-1.097.733-.504-.601.617.202.228.163.397.391.516.641.798,1.672,2.47,1.263,3.677,1.591.354.146.744.094,1.069-.121,4.659,1.644,9.308,3.298,14.064,4.046.43.188.906.125,1.29-.127,1.117.428,2.416.549,3.13.719.737.072,1.826-.083,2.201-1.039.256.282.596.473,1.012.506,1.227,1.308,3.006.588,4.44.918,1.326-.092,2.867.606,4.068-.436,3.092.157,6.127.813,9.213,1.134.909.688,2.03.294,3.018.513.819-.241,1.778.291,2.514-.469,1.233-.2,3.087.872,3.877-1.026.071.012.14.013.209.008.192.231.432.372.69.376,1.574-.4,6.911.661,7.592-1.017,1.094-.366,2.668.509,3.426-1.021.191-.007.392-.06.588-.152.276.036.548.043.781.048.903.182,1.739-.293,2.598-.558.621-.1,1.252.113,1.803-.502,1.106-.351,2.64.211,3.546-.917.927.324,1.954-.258,2.903-.234.971-.21,1.996-.061,2.93-.543.123-.088.227-.192.314-.306.556-.005,1.137-.215,1.682-.137.752-.111,1.657.348,2.288-.453.885-.02,2.109.719,2.182-.017l.912-.538c.414.074.878.173,1.256-.142.934.432,1.782-.152,2.168-.988,2.31,2.423,2.931-4.125-.903-6.389Z" fill="#6c431e"/><path d="M124.706,37.56c-2.823,1.914-5.539,3.986-8.564,5.608-3.79,1.968-6.991-2.389-9.535-4.624-.001-.006-.003-.011-.004-.017-.006-.006-.013-.012-.02-.018-.098-.086-.198-.167-.305-.241-.229-.154-.456-.31-.675-.478-.007-.006-.015-.011-.022-.016-.109-.085-.217-.171-.321-.262-.037-.033-.072-.068-.105-.104-.058-.014-.116-.029-.174-.044-.152-.039-.298-.091-.446-.142-.027-.01-.055-.019-.082-.029-.024.021-.052.038-.084.051-.101.042-.204.079-.306.12-.04.017-.079.036-.117.057-.001,0-.003.002-.005.003,0,0,0,0,0,0-.027.016-.053.033-.08.05-.067.108-.111.231-.139.362-.062.05-.119.105-.169.165-.005.071-.008.142-.008.214.002.155.016.309.036.464,0,.004.001.007.002.011,0,.006.002.012.002.018.013.09.032.18.049.27.018.092.037.183.06.273.024.087.053.173.088.256.053.118.115.232.178.345.003.005.006.01.009.014.007.003.014.007.02.013.033.028.035.074.014.106-.001.006-.003.012-.006.018.016.031.032.062.048.093.381.784.651,1.619.942,2.44.33.926.674,1.847,1.042,2.758.361.893.733,1.781,1.106,2.669.483,1.149.994,2.291,1.558,3.404.5.985,1.087,1.963,1.882,2.741.386.378.819.721,1.319.935.547.235,1.137.329,1.729.345.06.001.121.002.183.002.523,0,1.06-.066,1.558-.219.639-.198,1.236-.52,1.762-.932.549-.429,1.043-.931,1.445-1.502.333-.474.621-.966.882-1.483.544-1.081,1.022-2.193,1.533-3.29.498-1.071.993-2.144,1.519-3.202.728-1.445,1.528-2.855,2.327-4.261.108-.19.15-.401.133-.606.232-.161.464-.32.697-.479.056-.093.115-.185.17-.278.036-.062.07-.125.105-.188.039-.069.084-.135.13-.2.039-.056.079-.112.122-.165.025-.031.051-.061.076-.092-.019-.705-.772-1.408-1.554-.932Z" fill="#3e311b"/><path d="M162.078,101.297c-.178-3.747-.58-7.487-.97-11.222-.06-.829.194-1.888-.376-2.478.032-.216-.002-.451-.127-.682-.731-1.621-2.462-.393-1.956.866-.018.027-.035.055-.051.083.017-.025.036-.049.055-.073,0,0,0,.002.001.003-.028.037-.055.075-.08.114-.296.552-.362,1.32-.262,1.927.285,3.566.754,6.822.928,10.467.231,3.134-.117,6.267-.578,9.365-.401,3.848-1.626,7.551-3.912,10.698-1.731,2.254-3.351,4.717-5.706,6.371-4.379,2.716-9.118,5.081-14.328,5.508-2.222.367-4.442.781-6.701.831-1.356.152-4.409-.01-6.082.623-1.739-.665-3.599,1.843-1.349,2.763.433.117.878.054,1.259-.123,1.155.228,2.404-.435,3.599-.362,2.453-.126,4.918-.157,7.343-.59,5.14-.663,9.853-1.637,14.352-4.364,2.154-1.11,4.313-2.315,5.959-4.131,2.352-2.678,4.577-5.513,6.155-8.727,1.403-2.765,1.851-5.881,2.281-8.918.378-2.63.647-5.289.547-7.949Z"/><path d="M107.609,134.46c-.049-.36-.241-.691-.528-.912-.305-.236-.662-.307-1.039-.278-1.014.081-2.022.232-3.037.307-.191.011-.382.018-.574.022-.017.008-.035.015-.054.021-.027.008-.055.013-.083.018-.033.005-.066.01-.099.014-.073.007-.146.013-.22.018-.135.008-.27.014-.405.018-.272.008-.543.012-.815.017-.123.002-.246.004-.37.005-.052,0-.104,0-.156,0-.085,0-.17,0-.255-.007-.012,0-.025-.003-.037-.004-.06-.005-.119-.011-.179-.018-.06-.008-.121-.016-.181-.027-.011-.002-.023-.004-.034-.006-.094.015-.188.029-.283.035-.048.003-.097.005-.145.007-.007.004-.013.01-.019.015-1.018.033-2.037.022-3.055-.042-1.27-.092-2.533-.262-3.782-.512-1.164-.244-2.313-.558-3.439-.943-1.12-.393-2.214-.854-3.276-1.383-1.018-.518-2.005-1.097-2.954-1.733-.955-.651-1.87-1.359-2.741-2.12-.904-.803-1.756-1.659-2.557-2.564-.828-.951-1.595-1.95-2.305-2.992-.763-1.139-1.452-2.324-2.071-3.547l-.002-.005c-.014-.028-.028-.055-.042-.083-.109-.22-.253-.52-.392-.822-.479-1.04-.908-2.102-1.288-3.182-.1-.29-.197-.581-.29-.874-.409-1.286-.749-2.593-1.026-3.914-.007-.051-.018-.103-.031-.153-.049-.246-.096-.492-.141-.739-.278-1.535-.467-3.086-.577-4.641-.06-.932-.094-1.866-.098-2.8-.004-1.089.029-2.179.099-3.265,0-.015.002-.029.003-.044.083-1.193.21-2.383.38-3.567.14-.974.307-1.943.503-2.907.171-.826.362-1.647.571-2.465h0s.002-.007.003-.011c.088-.34.179-.678.272-1.016.179-.641-.157-1.413-.8-1.652-.16-.059-.322-.126-.489-.163-.136-.03-.272-.058-.407-.088-.371-.08-.738-.055-1.072.14-.311.182-.544.484-.639.831-.099.359-.048.751.14,1.072.069.117.159.23.264.327-.19.754-.206,1.562-.523,2.271-.529,1.183-1.15,1.937-1.305,3.011-.171,1.181.437,2.559.353,3.749-.084,1.173-.134,2.347-.135,3.523-.001,1.728.09,3.458.281,5.176.095.863.217,1.723.364,2.579.042.239.085.478.131.717.044.232.091.463.138.694,0,.003.001.007.002.01.002.01.004.02.006.031.045.216.091.432.139.648.104.466.215.93.335,1.391.141.542.293,1.081.458,1.617.372,1.208.798,2.401,1.285,3.567.568,1.358,1.217,2.686,1.947,3.964.905,1.584,1.934,3.101,3.086,4.516,1.145,1.406,2.407,2.708,3.773,3.899,1.47,1.282,3.073,2.413,4.766,3.379,1.758,1.003,3.618,1.814,5.541,2.44,1.764.573,3.589.978,5.429,1.215,1.361.175,2.728.258,4.097.258.729,0,1.459-.023,2.189-.069.234-.016.467-.034.7-.054.245.007.49.009.735.009h.051c.954-.001,1.899-.06,2.848-.165.624-.07,1.247-.146,1.874-.195.353-.028.7-.253.912-.528.227-.293.327-.671.277-1.039Z"/><path d="M67.008,91.806h0c.133-.294.093-.234,0,0Z" fill="#2f2814"/><path d="M160.632,93.129c.007.01.015.019.022.029,0,0,0,0,0,0,.018.017.053.041.095.068-.002-.004-.005-.008-.008-.012-.049-.033-.089-.062-.109-.084Z" fill="#2f2814"/><path d="M66.941,91.983s-.001.003-.002.005c.063-.006.076-.01.002-.005Z" fill="#2f2814"/><path d="M189.57,66.007c-.062-.373-.038-.815-.14-1.196-.004-.014-.006-.028-.006-.042-.012-.914-.142-1.821-.445-2.688.001.01.003.02.004.03-.006-.034-.017-.065-.026-.096-.002-.005-.003-.01-.005-.015-.048-.149-.133-.276-.239-.378-.232-.374-.7-.606-1.138-.472-.254.078-.505.163-.75.265-.012.005-.023.011-.034.018l-2.709,1.748c-.011.007-.02.015-.03.023-.737.688-1.402,1.531-1.746,2.49-.017.047-.05.087-.095.11-.1.052-.201.101-.302.146-.007.003-.014.007-.021.011-1.793,1.06-3.354,2.445-4.967,3.751-2.004,1.621-3.942,2.882-5.85,3.876-2.846,1.127-5.786,2.135-8.8,3.033-5.12,1.032-10.447,1.161-16.702,2.162-6.291,1.007-12.588,2.035-18.947,2.489-6.524.345-13.073.233-19.599-.008-9.124-.443-18.403-.304-27.341-2.379-8.224-1.621-16.863-2.886-23.911-7.589-.016-.011-.03-.024-.042-.038-.076-.091-.174-.174-.297-.244-.088-.045-.176-.09-.264-.135-.009-.005-.018-.01-.026-.016-.667-.471-1.318-.974-1.953-1.514-2.216-2.007-4.159-4.292-6.171-6.499-.005-.005-.009-.011-.014-.017-1.571-2.237-5.668-4.785-7.319-1.344-.012.024-.019.051-.02.078-.252,4.389-.01,9.026,1.698,13.136,1.863,4.364,4.237,8.672,8.111,11.562,2.076,1.635,4.532,2.658,6.874,3.842,3.193,1.76,6.8,3.422,10.547,3.857.012.001.047.014.036.008-.527-.256-.21-1.381.009-1.981-.051.005-.134.011-.23.015.055-.005.114-.01.176-.015.022-.002.041-.003.055-.005.024-.066.047-.125.067-.177-.004.008-.277.056-.538.106.175-.056.39-.123.405-.134l1.168-2.47c.218-.761.745-2.374.039-2.834-.071-.046-.119-.119-.11-.203v-.004c.013-.122.132-.203.25-.169.504.144,1.01.282,1.517.414.007.002.015.004.022.007,3.357,1.355,7.096,1.61,10.638,2.243,6.575,1.237,13.153,2.563,19.866,2.733,8.062.017,16.11.5,24.172.515.964.042,1.925.062,2.886.062,7.337,0,14.594-1.18,21.732-2.888.004-.001.008-.002.013-.003,2.907-.48,5.8-1.065,8.642-1.816.047-.012.09-.039.114-.081.013-.022.033-.041.057-.051.055-.022.115,0,.145.048,0,0,.001,0,.002,0-.002-.032.026-.064.059-.065.017,0,.032.006.044.017.019-.004.039-.003.058.005.465-.126.928-.257,1.39-.392.127-.037.258.058.254.191-.014.387.168.774.586.989.078.04-.705,1.921.476,1.769.096-.012.176-.025.246-.037-.056.071-.082.173-.033.317.021.062-.506.418-.545.47-.256.342.708.821-.019,1.269-.016.021.621.151.605.174-.3.419-.569.918-.408,1.226.133.089.335.201.408.242-.067-.034-.271-.147-.4-.23.052.091.142.166.285.214.037.012,1.026.301,1.065.3,9.293-.232,16.716-5.912,22.684-12.787.003-.003.006-.006.009-.009,3.207-3.127,3.382-7.573,4.14-11.717.003-.016.008-.031.014-.045.474-1.036.69-2.557.624-3.173Z" fill="#2f2814"/></g></svg>